<?xml version="1.0" encoding="UTF-8" standalone="no"?><svg xmlns="http://www.w3.org/2000/svg" xmlns:xlink="http://www.w3.org/1999/xlink" contentStyleType="text/css" height="400px" preserveAspectRatio="none" style="width:229px;height:400px;background:#FFFFFF;" version="1.1" viewBox="0 0 229 400" width="229px" zoomAndPan="magnify"><defs/><g><g id="elem_1"><ellipse cx="145.6551" cy="376.031" fill="#F1F1F1" rx="78.1551" ry="18.031" style="stroke:#181818;stroke-width:0.5;"/><text fill="#000000" font-family="sans-serif" font-size="14" lengthAdjust="spacing" textLength="114" x="86.2659" y="379.6166">Réserver par cb</text></g><g id="elem_2"><ellipse cx="145.3265" cy="281.7566" fill="#F1F1F1" rx="57.8265" ry="14.7566" style="stroke:#181818;stroke-width:0.5;"/><text fill="#000000" font-family="sans-serif" font-size="14" lengthAdjust="spacing" textLength="64" x="110.3265" y="285.5041">Réserver</text></g><g id="elem_3"><ellipse cx="145.42" cy="21.484" fill="#F1F1F1" rx="65.42" ry="15.484" style="stroke:#181818;stroke-width:0.5;"/><text fill="#000000" font-family="sans-serif" font-size="14" lengthAdjust="spacing" textLength="80" x="102.42" y="25.2316">S'identifier</text></g><g id="elem_4"><ellipse cx="145.5597" cy="151.782" fill="#F1F1F1" rx="61.5597" ry="14.782" style="stroke:#181818;stroke-width:0.5;"/><text fill="#000000" font-family="sans-serif" font-size="14" lengthAdjust="spacing" textLength="69" x="108.0597" y="155.5295">Consulter</text></g><!--MD5=[0ba5ee7700168656dc1b457c6fe9fdac]
entity Client--><g id="elem_Client"><ellipse cx="27.5" cy="122.5" fill="#F1F1F1" rx="8" ry="8" style="stroke:#181818;stroke-width:0.5;"/><path d="M27.5,130.5 L27.5,157.5 M14.5,138.5 L40.5,138.5 M27.5,157.5 L14.5,172.5 M27.5,157.5 L40.5,172.5 " fill="none" style="stroke:#181818;stroke-width:0.5;"/><text fill="#000000" font-family="sans-serif" font-size="14" lengthAdjust="spacing" textLength="43" x="6" y="186.9951">Client</text></g><!--MD5=[33ed49aa3311b135d2192157c3ea4eb7]
reverse link 2 to 1--><g id="link_2_1"><path d="M145.5,317.6317 C145.5,331.397 145.5,346.6112 145.5,357.9111 " fill="none" id="2-backto-1" style="stroke:#000000;stroke-width:1.0;"/><polygon fill="none" points="138.5,317.375,145.5,297.375,152.5,317.375,138.5,317.375" style="stroke:#000000;stroke-width:1.0;"/></g><!--MD5=[072b5bd456b45e240b080572337442de]
link Client to 4--><g id="link_Client_4"><path d="M49.1641,152 C58.9913,152 68.8185,152 78.6458,152 " fill="none" id="Client-to-4" style="stroke:#000000;stroke-width:1.0;"/><polygon fill="#000000" points="83.7848,152,74.7848,148,78.7848,152,74.7848,156,83.7848,152" style="stroke:#000000;stroke-width:1.0;"/></g><!--MD5=[03497ef9e8fa69a84abad374175d0fb5]
reverse link 4 to 2--><g id="link_4_2"><path d="M145.5,172.414 C145.5,198.36 145.5,243.738 145.5,266.749 " fill="none" id="4-backto-2" style="stroke:#000000;stroke-width:1.0;stroke-dasharray:7.0,7.0;"/><polygon fill="#000000" points="145.5,167.187,141.5,176.187,145.5,172.187,149.5,176.187,145.5,167.187" style="stroke:#000000;stroke-width:1.0;"/><text fill="#000000" font-family="sans-serif" font-size="13" lengthAdjust="spacing" textLength="61" x="146.5" y="233.0669">«extend»</text></g><!--MD5=[5110328450babfe37dca1b6f3952a027]
reverse link 3 to 4--><g id="link_3_4"><path d="M145.5,42.524 C145.5,68.705 145.5,113.919 145.5,136.823 " fill="none" id="3-backto-4" style="stroke:#000000;stroke-width:1.0;stroke-dasharray:7.0,7.0;"/><polygon fill="#000000" points="145.5,37.241,141.5,46.241,145.5,42.241,149.5,46.241,145.5,37.241" style="stroke:#000000;stroke-width:1.0;"/><text fill="#000000" font-family="sans-serif" font-size="13" lengthAdjust="spacing" textLength="61" x="146.5" y="80.0669">«include»</text></g><!--MD5=[21d428a75544b032d6ba4456f8b95fc6]
@startuml
hide circle
hide empty members
hide empty methods

skinparam classAttributeIconSize 0

skinparam roundcorner 5

skinparam class {
	BackgroundColor AliceBlue
	BorderColor DarkSlateGray
	ArrowColor Black
	FontColor Black
	FontSize 12
	FontName Helvetica
}

skinparam arrow {
    MessageAlign center
}

usecase 1 as "Réserver par cb"
usecase 2 as "Réserver"
usecase 3 as "S'identifier"
usecase 4 as "Consulter"

actor Client
(2) <|- - (1)
Client -> 4
4 <.. 2 : <<extend>>

3 <.. 4 : <<include>>
@enduml

PlantUML version 1.2022.3beta2(Unknown compile time)
(GPL source distribution)
Java Runtime: Java(TM) SE Runtime Environment
JVM: Java HotSpot(TM) 64-Bit Server VM
Default Encoding: UTF-8
Language: en
Country: US
--></g></svg>